<svg xmlns="http://www.w3.org/2000/svg" fill="#fdfdfd" viewBox="0 0 18 20">
    <path d="M14.444 0c1.841 0 3.333 1.492 3.333 3.333v10c0 1.841-1.492 3.333-3.333 3.333h-5.278l-5.833 3.333v-3.333c-1.841 0-3.333-1.492-3.333-3.333v-10c0-1.841 1.492-3.333 3.333-3.333h11.111zM14.444 1.111h-11.111c-1.171 0-2.131 0.907-2.217 2.056l-0.006 0.167v10c0 1.171 0.907 2.131 2.056 2.217l0.167 0.006h1.111v2.529l4.427-2.529h5.573c1.171 0 2.131-0.907 2.217-2.056l0.006-0.167v-10c0-1.171-0.907-2.131-2.056-2.217l-0.167-0.006zM13.333 4.444c0.613 0 1.111 0.498 1.111 1.111v5.556c0 0.613-0.498 1.111-1.111 1.111h-8.889c-0.613 0-1.111-0.498-1.111-1.111v-5.556c0-0.613 0.498-1.111 1.111-1.111h8.889zM13.333 6.014l-3.659 3.66c-0.433 0.433-1.138 0.433-1.571 0l-3.659-3.659v5.096h8.889v-5.097zM11.762 6.016h-5.748l2.874 2.873 2.873-2.873z"></path>
</svg>