<svg xmlns="http://www.w3.org/2000/svg" xmlns:xlink="http://www.w3.org/1999/xlink" x="0" y="0" viewBox="0 0 123.3 81.6" style="enable-background:new 0 0 123.3 81.6" xml:space="preserve">
  <style>
    .st0{clip-path:url(#SVGID_00000026126822705030404790000018380486016025360557_)}
  </style>
    <defs>
    <path id="SVGID_1_" d="M-.9 0h125v94H-.9z"/>
  </defs>
    <clipPath id="SVGID_00000114037037410104177920000017566247914210021526_">
    <use xlink:href="#SVGID_1_" style="overflow:visible"/>
  </clipPath>
    <g style="clip-path:url(#SVGID_00000114037037410104177920000017566247914210021526_)">
    <path d="M4.6 64.7c2.4 0 4.1-1.4 4.3-3.5v-.1h-2v.1C6.7 62.3 5.8 63 4.6 63c-1.6 0-2.5-1.3-2.5-3.4 0-2.1 1-3.4 2.5-3.4 1.2 0 2.1.8 2.3 1.9h2V58c-.2-2.1-1.9-3.6-4.3-3.6-2.9 0-4.6 2-4.6 5.2 0 3.1 1.8 5.1 4.6 5.1zm6-.2h2v-4.2c0-1.1.7-1.7 1.9-1.7.3 0 .6 0 .9.1V57c-.2-.1-.5-.1-.7-.1-1 0-1.7.5-1.9 1.3h-.1V57h-2v7.5zm7.1-8.7c.6 0 1.1-.5 1.1-1.1 0-.6-.5-1.1-1.1-1.1-.6 0-1.1.5-1.1 1.1 0 .6.5 1.1 1.1 1.1zm-1 8.7h2V57h-2v7.5zm7 .1c1.9 0 3.3-1 3.3-2.5 0-1.1-.7-1.7-2.2-2.1l-1.3-.3c-.8-.2-1.1-.4-1.1-.8 0-.5.5-.8 1.2-.8s1.2.4 1.3.8h1.9c-.1-1.2-1.2-2.2-3.2-2.2-1.9 0-3.1.9-3.1 2.4 0 1.1.7 1.8 2.1 2.1l1.3.3c.8.2 1.1.4 1.1.8 0 .5-.5.8-1.3.8s-1.2-.3-1.4-.8h-2c.2 1.4 1.4 2.3 3.4 2.3zm8-.1c.4 0 .8 0 1-.1v-1.5h-.6c-.7 0-1-.3-1-1v-3.5h1.6v-1.5h-1.6v-1.8h-2v1.8H28v1.5h1.2v4c0 1.5.7 2.1 2.5 2.1zm3.7-8.7c.6 0 1.1-.5 1.1-1.1 0-.6-.5-1.1-1.1-1.1-.6 0-1.1.5-1.1 1.1 0 .6.5 1.1 1.1 1.1zm-1 8.7h2V57h-2v7.5zm6.1.1c1 0 1.8-.4 2.2-1.1h.1v1h2v-5.1c0-1.6-1.1-2.5-3.1-2.5-1.9 0-3.1.9-3.3 2.2v.1h1.8c.2-.4.6-.7 1.3-.7.8 0 1.3.4 1.3 1v.6l-1.9-.1c-1.8.2-2.9 1-2.9 2.3 0 1.4 1 2.3 2.5 2.3zm-.5-2.4c0-.6.4-.9 1.3-.9l1.5-.1v.6c0 .8-.7 1.4-1.6 1.4-.7-.1-1.2-.4-1.2-1zm6.7 2.3h2v-4.4c0-1 .6-1.7 1.5-1.7s1.4.6 1.4 1.6v4.4h2v-4.9c0-1.8-.9-2.8-2.6-2.8-1.1 0-1.8.5-2.2 1.3h-.1v-1.2h-2v7.7zm12.1.1c2.3 0 3.7-1.5 3.7-3.9s-1.4-3.9-3.7-3.9-3.7 1.5-3.7 3.9 1.4 3.9 3.7 3.9zm0-1.6c-1.1 0-1.7-.9-1.7-2.4s.6-2.4 1.7-2.4 1.7.9 1.7 2.4c0 1.6-.6 2.4-1.7 2.4zm9.2 1.5h2v-3.6h1.7l1.8 3.6h2.3l-2.1-3.9c1.1-.4 1.8-1.5 1.8-2.8 0-1.9-1.3-3.1-3.5-3.1h-4v9.8zm2-5.2v-3.1h1.8c1 0 1.7.6 1.7 1.6s-.6 1.6-1.6 1.6H70zm10.6 5.3c2.3 0 3.7-1.5 3.7-3.9s-1.4-3.9-3.7-3.9c-2.3 0-3.7 1.5-3.7 3.9s1.4 3.9 3.7 3.9zm0-1.6c-1.1 0-1.7-.9-1.7-2.4s.6-2.4 1.7-2.4 1.7.9 1.7 2.4c0 1.6-.7 2.4-1.7 2.4zm5.3 1.5h2v-4.4c0-1 .6-1.7 1.5-1.7s1.4.6 1.4 1.6v4.4h2v-4.9c0-1.8-.9-2.8-2.6-2.8-1.1 0-1.8.5-2.2 1.3h-.1v-1.2h-2v7.7zm10.9.1c1 0 1.8-.4 2.2-1.1v1h2v-5.1c0-1.6-1.1-2.5-3.1-2.5-1.9 0-3.1.9-3.3 2.2v.1h1.8c.2-.4.6-.7 1.3-.7.8 0 1.3.4 1.3 1v.6l-1.8-.1c-1.9.1-2.9.9-2.9 2.3s1 2.3 2.5 2.3zm-.5-2.4c0-.6.4-.9 1.3-.9l1.5-.1v.6c0 .8-.7 1.4-1.6 1.4-.8-.1-1.2-.4-1.2-1zm6.7 2.3h2V54.1h-2v10.4zm6.8.1c1.1 0 1.9-.5 2.2-1.3h.1v1.2h2V54.1h-2v4.1h-.1c-.4-.8-1.2-1.3-2.2-1.3-1.9 0-3.1 1.5-3.1 3.9 0 2.3 1.2 3.8 3.1 3.8zm.7-1.7c-1.1 0-1.7-.8-1.7-2.2 0-1.4.6-2.2 1.7-2.2s1.7.8 1.7 2.2c0 1.4-.7 2.2-1.7 2.2zm9.1 1.7c2.3 0 3.7-1.5 3.7-3.9s-1.4-3.9-3.7-3.9-3.7 1.5-3.7 3.9c-.1 2.4 1.3 3.9 3.7 3.9zm0-1.6c-1.1 0-1.7-.9-1.7-2.4s.6-2.4 1.7-2.4 1.7.9 1.7 2.4c-.1 1.6-.7 2.4-1.7 2.4z" style="fill:#fdfdfd"/>
        <path d="M8.6 81.5h3.7v-1H9.8v-4.7H8.6v5.7zm4.8 0h1.2v-5.6h-1.2v5.6zm4 0h1.5l1.9-5.6h-1.3l-1.2 4.3h-.1L17 75.9h-1.3c-.2-.1 1.7 5.6 1.7 5.6zm4.3 0h3.7v-1h-2.6v-1.4h2.4v-.9h-2.4v-1.4h2.6v-1h-3.7v5.7zm7 .1c1.4 0 2.3-.7 2.3-1.8 0-.9-.5-1.4-1.7-1.6l-.6-.1c-.7-.1-.9-.4-.9-.7 0-.4.4-.7 1-.7s1 .3 1.1.7H31v-.1c-.1-.9-.8-1.6-2.2-1.6-1.2 0-2.1.7-2.1 1.7 0 .9.5 1.4 1.7 1.6l.6.1c.7.1 1 .4 1 .7 0 .4-.4.7-1.1.7-.7 0-1.1-.3-1.2-.7h-1.1v.1c-.1 1.1.7 1.7 2.1 1.7zm5.8 0c1.4 0 2.3-.8 2.4-2h-1.1c-.1.6-.6 1-1.3 1-.9 0-1.4-.8-1.4-2s.6-2 1.4-2c.7 0 1.2.4 1.3 1.1h1.1c-.1-1.2-1.1-2-2.4-2-1.6 0-2.6 1.1-2.6 3-.1 1.8.9 2.9 2.6 2.9zm6 0c1.7 0 2.7-1.1 2.7-3 0-1.8-1.1-3-2.7-3-1.7 0-2.7 1.1-2.7 3-.1 1.9 1 3 2.7 3zm0-1c-.9 0-1.5-.8-1.5-2s.6-2 1.5-2 1.5.8 1.5 2-.6 2-1.5 2zm3.8.9h1.2v-2.1h1l1.1 2.1h1.3l-1.2-2.2c.6-.3 1-.9 1-1.6 0-1.1-.7-1.8-2-1.8h-2.3c-.1-.1-.1 5.6-.1 5.6zm1.2-3v-1.8h1c.6 0 1 .4 1 .9 0 .6-.3.9-.9.9h-1.1zm4.3 3h3.7v-1H51v-1.4h2.4v-.9H51v-1.4h2.6v-1h-3.7v5.7zm6.7 0h1.2l.4-1.4h2l.4 1.4h1.2l-2-5.6h-1.4l-1.8 5.6zm2.6-4.6.8 2.3h-1.4l.6-2.3zm3.6 4.6h1.1v-3.8h.1l1.4 3.8h.7l1.4-3.8h.1v3.8h1.1v-5.6h-1.4L65.6 80h-.1l-1.6-4.1h-1.4l.2 5.6zm7.3 0h2.5c1.2 0 1.9-.6 1.9-1.6 0-.7-.5-1.3-1.3-1.3v-.1c.6-.1 1-.6 1-1.2 0-.9-.7-1.4-1.7-1.4H70v5.6zm2.2-4.8c.6 0 .9.3.9.7 0 .5-.3.7-1 .7h-.9v-1.5c0 .1 1 .1 1 .1zm0 2.2c.7 0 1.1.3 1.1.8s-.4.8-1 .8h-1.1v-1.6h1zm2.9 2.6h1.2l.4-1.4h2l.4 1.4h1.2l-2-5.6h-1.4c.2-.1-1.8 5.6-1.8 5.6zm2.7-4.6.8 2.3h-1.4c-.1 0 .6-2.3.6-2.3zm5.6 4.7c1.4 0 2.3-.7 2.3-1.8 0-.9-.5-1.4-1.7-1.6l-.6-.1c-.7-.1-.9-.4-.9-.7 0-.4.4-.7 1-.7s1 .3 1.1.7h1.1v-.1c-.1-.9-.8-1.6-2.2-1.6-1.2 0-2.1.7-2.1 1.7 0 .9.5 1.4 1.7 1.6l.6.1c.7.1 1 .4 1 .7 0 .4-.4.7-1.1.7-.7 0-1.1-.3-1.2-.7h-1.1v.1c-.1 1.1.8 1.7 2.1 1.7zm5.4 0c1.4 0 2.3-.7 2.3-1.8 0-.9-.5-1.4-1.7-1.6l-.6-.1c-.7-.1-.9-.4-.9-.7 0-.4.4-.7 1-.7s1 .3 1.1.7h1v-.1c-.1-.9-.8-1.6-2.2-1.6-1.2 0-2.1.7-2.1 1.7 0 .9.5 1.4 1.7 1.6l.6.1c.7.1 1 .4 1 .7 0 .4-.4.7-1.1.7-.7 0-1.1-.3-1.2-.7h-1.1v.1c0 1.1.9 1.7 2.2 1.7zm3-.1H93l.4-1.4h2l.4 1.4H97l-2-5.6h-1.4c.2-.1-1.8 5.6-1.8 5.6zm2.6-4.6.8 2.3h-1.4c-.1 0 .6-2.3.6-2.3zm3.7 4.6h2.2c1.7 0 2.6-1 2.6-2.9 0-1.8-1-2.8-2.6-2.8h-2.2v5.7zm1.2-1v-3.7h.9c1 0 1.6.7 1.6 1.8 0 1.2-.6 1.9-1.6 1.9h-.9zm7.2 1.1c1.7 0 2.7-1.1 2.7-3 0-1.8-1.1-3-2.7-3s-2.7 1.1-2.7 3 1 3 2.7 3zm0-1c-.9 0-1.5-.8-1.5-2s.6-2 1.5-2 1.5.8 1.5 2-.6 2-1.5 2zm3.9.9h1.2v-2.1h1l1.1 2.1h1.3l-1.2-2.2c.6-.3 1-.9 1-1.6 0-1.1-.7-1.8-2-1.8h-2.3c-.1-.1-.1 5.6-.1 5.6zm1.1-3v-1.8h1c.6 0 1 .4 1 .9 0 .6-.3.9-.9.9h-1.1z" style="fill:#aaa"/>
        <path d="M61.5 2.6c3.2-.3 6.3-.4 9.3.5 1.1.3 2.1.8 2.9 1.7 1 1.2 1.1 2.4.4 3.7-.9 1.7-2.3 3-3.7 4.2-3.2 2.8-6.6 5.2-10.2 7.6l-2.4 1.6-.6.4c-.4.3-.9.6-1.4.8-.3.2-.5.4-.6.7-1 1.9-2 3.7-2.7 5.8l-.2.8-.3 2.4c0 .3.1.7.1 1 .1 1.1.9 1.6 2 1.3l.4-.2.9-.4c2.7-2 4.8-4.4 6.6-7.1l.1-.1.2-.2c1.2-1.6 2.1-3.3 2.9-5.1.3-.8.6-1.6 1.2-2.3.3-.7.8-1.4 1.2-2l.6-.7c.2-.3.5-.5.9-.2.4.2.5.6.3 1-.2.5-.5.9-.9 1.3-.7 1.2-1.3 2.4-2.1 3.5l-.6.8-.2.3c-.5.7-.8 1.5-1.1 2.4l-.5 1.5c-.1.2-.1.3-.2.5 0 .3-.1.5-.2.7l-.1.6v.2c0 .3 0 .6-.2.8v.8c.3.4.5.4.7.2l.2-.2c.1-.1.2-.1.2-.1.2.7-.1 1.2-.7 1.4-.7.2-1.3-.2-1.5-.9-.2-.9 0-1.8.3-2.6v-.3c0-.1 0-.1-.1-.1-.1-.1-.2 0-.2.1v.3c-1 1.4-2.2 2.7-3.3 4l-.7.7c-.8.8-1.6 1.5-2.6 2-.7.5-1.5.7-2.4.6-1.6-.3-2.3-1.1-2.3-2.7-.4.4-.6.9-.7 1.4l-.2.6c0 .1-.1.2-.1.3l-.1.3c0 .1-.1.2-.1.4l-.2.7-.1.6V38.8c.1.4-.1.7-.5.9-.3.2-.7 0-.9-.2-.3-.2-.3-.5-.2-.8v-.1c.1-.1.1-.3.1-.4l.3-.9.2-.8c.4-1.9 1.1-3.7 2-5.5l.4-.8 1.9-5-3.3 1.9-5.2 3.1c-.1.2 0 .3.1.4l.1.2s0 .1.1.1l1.2 1.6c.2.3.4.5.6.8.3.4.2.9-.2 1.1H46c-.2 0-.4.1-.6.2l-.6.3c-.1 0-.2.1-.3.1h-.3l-1.2.5c-1.2.5-2.5 1-3.7 1.4-3.7 1.3-7.3 2.6-10.9 4.1-.2.1-.4.1-.5.2l-.6.3-.3.1c-.1.1-.2.1-.3.1h-.2l-.5.2-.7.3c-.5.2-.9.4-1.5.4-.3 0-.6-.1-.7-.4-.1-.3.1-.5.3-.6h.1c.8-.3 1.5-.8 2.3-1.1l6.5-3.9 7.8-4.7c.1-.1.2-.1.1-.2-.5.1-1 .2-1.6.3h-1.7c-1 .1-2.1.3-3.1.6-.7.3-1.5.7-2.3.8-.3.1-.6.3-.8.5l-.3.3c-1.2 1.2-2.6 1.5-4.2 1.2-4.3 1.8-8.6 3.7-12.8 5.8-.2.2-.4.3-.6.3h-.2l-.3.3-.3.3c-.2.2-.4.3-.4.7-.1.2-.5.2-.8.2-.3-.1-.7-.2-.7-.6 0-.2.1-.5.4-.6 1-.5 1.9-1 2.9-1.5 3.2-1.7 6.5-3.2 9.9-4.6.7-.3 1.4-.5 2.1-.8-.2-1.4 0-2.8.4-4.2.4-1.1.8-2.3 1.3-3.3 0-.2.1-.3.2-.4l.1-.3.5-.9v-.1c0-.2.1-.4.3-.5 1-2 2.3-3.8 3.9-5.3l.1-.1.3-.1c.7-.7 1.4-1.2 2.5-1 .8.2 1.4.8 1.5 1.6.1.6 0 1.1-.2 1.7l-.2.7c0 .1-.1.2-.1.3-.1.4-.2.8-.4 1.2l-.5 1.2c-.2.6-.4 1.2-.5 1.9-.1.5-.4.6-.9.5-.5-.2-.5-.5-.4-1 .6-1.6 1.2-3.1 1.8-4.7.1-.4.2-.8.2-1.2 0-1-.4-1.4-1.3-1.1l-.5.2-.2.1-.2.3c-1.5 1.4-2.7 3.1-3.8 4.8l-.3.6-1.1 2.1c0 .4-.2.7-.4 1l-.4 1.1c-.3 1-.6 1.9-.7 2.9-.1 1.2.1 1.4 1.2.9l.8-.3c.1-.1.3-.1.4-.2l.4-.1c1-.3 1.8-.9 2.5-1.6l.3-.3.3-.4c.1-.2.3-.4.5-.5.1.4 0 .7-.3.9l-.1.7 1-.2.3-.1c.3-.1.7-.3 1-.3.1-.1.2-.2.3-.1l3.3-1.1.4-.1c.6-.2.8-.4.7-1l-.1-.4c-.5-2.2-.4-4.4-.1-6.7l.1-1.3c0-.2 0-.4.1-.7l.1-.7c0-.5.1-1.1.1-1.6l-.1-.3c-.1-.5.1-.9.6-.9.6 0 .9.3.9.9-.3 2.2-.5 4.3-.7 6.5-.2 1.7-.2 3.3.4 5 .2.7 1 1.2 1 2l1.3-.7c-.1-.5-.7-.8-.5-1.5.3 0 .5.1.7.3l.3.3c.2.2.4.3.7.2l4.9-3 4.2-2.6c.7-.4 1-.9 1.3-1.5l.4-.8c0-.1.1-.2.1-.3.3-.5.7-1.1 1-1.6l.5-.8c.2-.3.4-.7.9-.4.4.3.4.7.3 1.1l-.3.6-.7 1.2c1-.5 1.9-1.1 2.8-1.7l1.3-.9c2.5-1.7 4.9-3.4 7.2-5.3 1.9-1.5 3.6-3.2 5-5.1 1.3-1.7.6-3.5-1.6-4.2-2.1-.7-4.3-.8-6.5-.8-2.3 0-4.6.4-6.9.7h-.4c-.2 0-.4.1-.4.4.5.3.4.7.1 1l-.1.1c-.4.3-.7.7-1 1.1l-.9 1.1-.5.6c-1.7 2.4-3.4 4.9-4.6 7.5l-.4.9c.3 0 .6-.1.9-.2l.5-.2c.1 0 .2-.1.3-.1l.4-.1.2-.1c.2-.1.3-.1.4.1.1.3-.1.5-.4.7-.8.4-1.5.8-2.4 1.1-.6.3-.8.8-.9 1.4l-.2 1.2c-.1.9-.1 1.9.4 2.7l.1.2c.1.2.2.3-.1.5-.3.2-.7.2-.9-.2-.4-.7-.6-1.4-.6-2.2-.1-.4 0-.7 0-1.1l.1-.7v-.4h-.4c-.6.1-.9-.3-1-.7-.1-.5.3-.7.8-.9l.5-.1c.5-.1.9-.3 1.1-.8.9-2.3 2.2-4.4 3.5-6.4l.2-.3.4-.6c.2-.3.4-.6.5-.9-1 .5-1.8 1.3-2.5 2.1l-.3.3c-.3.3-.5.7-1.1.6-.4-.1-.5-.5-.5-.9 0-.2 0-.3.2-.4.9-.5 1.7-1.2 2.5-1.8l1.2-1c.2-.2.4-.3.6-.5l.6-.5c.7-.5 1.4-1.1 2-1.7l.5-.5-.5.2c-.1-.1-.3-.1-.4-.1l-.2.1h-.1c-4.7.9-9.1 2.4-13.5 4.3-3.3 1.4-6.6 3.1-9.5 5.2-3.5 2.6-6.6 5.5-8.2 9.6-.1.3-.1.6-.2.8l-.1.8c0 .1-.1.3-.1.4.1.2.1.4.2.6.1.4.1.8-.5.9-.6.1-.8-.2-.8-.7 0-.7 0-1.3.2-2 .4-2.1 1.5-3.9 2.8-5.5 2.5-3.2 5.7-5.6 9.2-7.6 4.6-2.7 9.6-4.8 14.8-6.3 3.8-1.2 7.8-2.1 11.9-2.5zM90.3 0h.2c.4 0 .6.2.8.6.1.4 0 .7-.2.9l-.4.3-.4.3L88.8 4l-.7.9c-2.8 3.4-5.4 6.8-7.8 10.4-3.3 5-6.6 10-9.4 15.2l-.4.7-.7 1.4c-.1.8.2.8.6.8h.5c1.4-.7 2.5-1.7 3.5-2.8l.8-.8.4-.4.6-.6.8.3c-1.1 1.7-2.4 3.2-4 4.4-.6.5-1.4 1-2.2 1.2-.3.1-.5.1-.8 0-1.4 0-1.9-.8-1.4-2.1l.1-.2.3-.8c.7-1.6 1.6-3.1 2.5-4.6 3.3-5.5 6.8-11 10.6-16.2 2-2.7 3.9-5.5 6.1-8 .4-.7.8-1.4 1.1-2.1.4-.6.7-.7 1-.7zM43.2 31.1c-.1.1-.3.2-.4.3L32 37.7h-.1l-.2.1c-.2.1-.3.2-.2.3.1.2.2.2.3.1l.2-.1h.1L38 36l5.9-2.1h.1l.4-.2c.2-.1.4-.3.2-.6-.4-.9-.7-1.5-1.4-2zm38.4-9.9.2-.3c.2-.4.4-.8.8-.5.4.3.5.8.2 1.3-.3.4-.5.9-.8 1.3l-.7 1.4c-.1.2-.2.5-.4.7l-.3.8-.5 1.6c-.3.8-.5 1.6-.7 2.4 0 .2-.1.4-.1.6v.4c0 .1-.1.2-.2.2-.3 0-.3-.2-.4-.4v-.2c-.1-.6.1-1.3.1-1.9v-.4c-.2 0-.3 0-.3.2l-.1.2c0 .1 0 .1-.1.2-.2.2-.3.5-.5.6l-.7-.4c-.3-.5-.1-.9.1-1.2l.2-.3.6-.8 1.1-1.6c.8-1 1.5-2.1 2.1-3.3 0 .1.4-.6.4-.6zm30-20.8.2-.1.1-.1.1-.1c.2-.1.3-.2.5.2l.1.1.1.2c.1.3.1.6-.3.8l-.2.1c-.1 0-.2.1-.2.1l-.4.2c-1.9 1.3-3.7 2.7-5.4 4.3-2.2 2.1-4.1 4.5-6 6.8-2.5 3.1-4.8 6.3-7.1 9.5-1.2 1.7-2.4 3.3-3.9 4.8l-.6.6c-.2.2-.4.5-.7.5-.3.3-.6.4-.9.4-1.1.1-1.6-.3-1.6-1.4 0-.4.1-.9.2-1.3.4-1.6.9-3.2 1.5-4.8C88.6 17 90.6 13 93 9.3c1.2-1.9 2.5-3.7 4.1-5.2.2-.3.5-.5.9-.6.4-.1.7 0 .8.4.1.4.1.7-.4.8l-.2.1-.4.2c-.4.4-.7.8-1.1 1.2-3.5 4.1-6 8.8-8.1 13.7-1 2.2-1.6 4.6-2.3 7 0 .6.3.7.8.5l.3-.1.5-.4 1-1.1C90.5 24 92 22 93.5 20l2.2-3c1.1-1.5 2.2-3 3.4-4.4l1.3-1.6c2.2-2.7 4.5-5.3 7.2-7.5l1-.8c.8-.7 1.7-1.3 2.7-1.8l.3-.5zm-2.9 8.7c.7-.7 1.4-.9 2-.5.7.4 1 1.1.7 1.9-.1.3.1.5 0 .7l-.2.8c-.3 1.5-.8 3-1.9 4.2l-.1.1c0 .1-.1.2-.2.1h-.1c.1.1.1.2 0 .2l-.1.1c-.1.2-.2.4-.4.4-1.1 1.2-2.5 1.9-4.1 1.9-2.2.1-3-1.2-2.1-3.2.9-2.1 2.2-4 3.9-5.7.3-.3.5-.6.8-.9.3-.3.7-.5 1 0 .3.3.3.7 0 .9l-.4.3-.6.5c-1.4 1.7-2.7 3.5-3.7 5.4 0 1 .1 1.3.8 1.3H104.6c1.5-.1 2.6-1 3.6-1.9 1.2-1.6 1.9-3.3 2.3-5.3.2-.9-.2-1.1-.8-1.2l-.6-.1c0 .1-.2.1-.4 0z" style="fill-rule:evenodd;clip-rule:evenodd;fill:#fdfdfd"/>
  </g>
</svg>
