<?xml version="1.0" encoding="UTF-8"?>
<svg fill="none" viewBox="0 0 20 20" xmlns="http://www.w3.org/2000/svg">
<g clip-path="url(#a)">
<path d="M10 20c5.522 0 10-4.477 10-10S15.522 0 10 0C4.477 0 0 4.477 0 10s4.477 10 10 10zm0-1a9 9 0 1 0 0-18 9 9 0 0 0 0 18zm0-5a.75.75 0 1 1 0 1.5.75.75 0 0 1 0-1.5zm.256-9.556c1.914 0 3.22 1.185 3.22 2.75 0 1.192-.615 2.036-1.587 2.62-.964.57-1.239.996-1.239 1.792v.495a.665.665 0 0 1-1.323.097L9.32 12.1h.001v-.698c-.007-1.003.48-1.687 1.52-2.309.88-.54 1.223-1.018 1.223-1.831 0-.942-.73-1.633-1.861-1.633-1.147 0-1.876.676-1.96 1.762L8.24 7.39l-.007.096a.65.65 0 0 1-1.286 0L6.94 7.39c.089-1.64 1.182-2.946 3.316-2.946z" clip-rule="evenodd" fill="#FDFDFD" fill-rule="evenodd"/>
</g>
<defs>
<clipPath id="a">
<path d="M0 0h20v20H0z" fill="#fff"/>
</clipPath>
</defs>
</svg>
