<svg xmlns="http://www.w3.org/2000/svg" fill="#aaa" viewBox="0 0 20 20">
    <path d="M19.286 18.571c0.394 0 0.714 0.32 0.714 0.714s-0.32 0.714-0.714 0.714v0h-18.571c-0.394 0-0.714-0.32-0.714-0.714s0.32-0.714 0.714-0.714v0h18.571zM19.286 9.286c0.394 0 0.714 0.32 0.714 0.714s-0.32 0.714-0.714 0.714v0h-18.571c-0.394 0-0.714-0.32-0.714-0.714s0.32-0.714 0.714-0.714v0h18.571zM19.286 0c0.394 0 0.714 0.32 0.714 0.714s-0.32 0.714-0.714 0.714v0h-18.571c-0.394 0-0.714-0.32-0.714-0.714s0.32-0.714 0.714-0.714v0h18.571z"></path>
</svg>