<svg width="113" height="20" viewBox="0 0 113 20" fill="none" xmlns="http://www.w3.org/2000/svg">
    <path fill-rule="evenodd" clip-rule="evenodd" d="M11.498 2.415c0 1.088.873 1.973 1.945 1.973s1.944-.885 1.944-1.973S14.515.442 13.443.442s-1.945.885-1.945 1.973zm23.068 7.755c0-.617.49-1.12 1.09-1.12h2.75c.6 0 1.09.503 1.09 1.12v1.045h-4.93V10.17zm-3.791 4.82c0 2.762 2.19 5.01 4.882 5.01h6.66l.917-3.891h-7.577c-.602 0-1.091-.503-1.091-1.12v-.557h8.721V10.6c0-2.763-2.19-5.011-4.882-5.011h-2.748c-2.692 0-4.882 2.248-4.882 5.011v4.39zM15.218 20h-3.72V5.932h3.72V20zm6.144 0L16.571 5.932h3.892l3.04 8.928 3.041-8.928h3.892L25.646 20h-4.284zm51.588-9.4c0-.617.489-1.12 1.09-1.12h2.749c.602 0 1.09.503 1.09 1.12v4.39c0 .617-.489 1.119-1.09 1.119H74.04c-.601 0-1.09-.503-1.09-1.12V10.6zm-3.792 4.39c0 2.762 2.19 5.01 4.882 5.01h2.749c2.692 0 4.882-2.248 4.882-5.01V10.6c0-2.763-2.19-5.011-4.882-5.011H74.04c-2.692 0-4.882 2.248-4.882 5.01v4.39zM62.401 20c-2.708 0-4.91-2.221-4.91-4.951v-4.337c0-2.73 2.202-4.951 4.91-4.951h5.574l-.923 3.844h-4.651c-.605 0-1.098.497-1.098 1.107v4.337c0 .61.493 1.106 1.098 1.106h5.574L67.052 20h-4.651zm20.792-9.288V20h3.753v-9.288c0-.61.484-1.107 1.08-1.107h2.883l.907-3.844h-3.79c-2.665 0-4.833 2.22-4.833 4.951zm14.013-1.661c-.602 0-1.091.502-1.091 1.12v1.044h4.93V10.17c0-.617-.489-1.12-1.09-1.12h-2.749zm0 10.949c-2.692 0-4.882-2.248-4.882-5.01V10.6c0-2.763 2.19-5.011 4.882-5.011h2.748c2.692 0 4.882 2.248 4.882 5.011v3.832h-8.721v.557c0 .617.49 1.12 1.091 1.12h7.52L103.809 20h-6.603zM4.877 20C2.187 20 0 17.782 0 15.055V1.472h3.787v13.583c0 .61.49 1.105 1.09 1.105h5.1L9.06 20H4.877zm40.178-3.832L44.133 20H51.4c2.706 0 4.907-2.213 4.907-4.934v-1.488c0-2.57-1.994-4.73-4.54-4.92l-2.393-.204-.411-.035a1.106 1.106 0 0 1-1.009-1.1v-.913c0-.608.492-1.103 1.097-1.103h5.44l.921-3.831h-6.361c-2.707 0-4.908 2.213-4.908 4.934v.913c0 2.56 1.986 4.72 4.522 4.92l2 .17.81.069c.573.039 1.021.522 1.021 1.1v1.488a1.1 1.1 0 0 1-1.096 1.102h-6.345zM106.934 9.192V6.227h-.997V5.59h2.706v.638h-.991v2.965h-.718zM110.978 8.07h-.443l-.695-1.184v2.306h-.69V5.589h.69l.926 1.59.927-1.59h.67v3.603h-.69V6.886l-.695 1.184z" fill="#FDFDFD"/>
</svg>
