<svg width="60" height="60" viewBox="0 0 60 60" fill="none" xmlns="http://www.w3.org/2000/svg">
    <rect width="60" height="60" rx="13" fill="#FF6B00"/>
    <path fill-rule="evenodd" clip-rule="evenodd" d="M18.552 45.82c-4.77 0-8.65-3.787-8.65-8.444V14.18h6.717v23.196c0 1.04.867 1.887 1.933 1.887h9.042L25.97 45.82H18.55zM28.473 45.82l1.635-6.543H41.36c1.072 0 1.944-.844 1.944-1.883v-2.54c0-.987-.795-1.812-1.811-1.88-.03-.001-4.838-.396-4.983-.408-4.497-.34-8.02-4.03-8.02-8.4v-1.56c0-4.647 3.905-8.426 8.704-8.426h11.281l-1.634 6.543h-9.647c-1.072 0-1.945.844-1.945 1.883v1.56c0 .975.786 1.8 1.79 1.877l.728.06 4.244.348c4.515.324 8.052 4.015 8.052 8.402v2.541c0 4.647-3.904 8.426-8.703 8.426H28.473z" fill="#111"/>
</svg>