<svg xmlns="http://www.w3.org/2000/svg" width="17" height="17" viewBox="0 0 17 17">
    <g fill="none" fill-rule="evenodd">
        <g fill="#AAA">
            <g>
                <path d="M3 8.5C3 5.467 5.467 3 8.5 3S14 5.467 14 8.5 11.533 14 8.5 14 3 11.533 3 8.5m10.433 4.226C14.408 11.589 15 10.115 15 8.5 15 4.91 12.09 2 8.5 2S2 4.91 2 8.5 4.91 15 8.5 15c1.615 0 3.089-.592 4.226-1.567l4.47 4.47c.098.098.226.147.354.147.128 0 .256-.049.353-.147.196-.195.196-.511 0-.707l-4.47-4.47z" transform="translate(-17.000000, -17.000000) translate(15.000000, 15.000000)"/>
            </g>
        </g>
    </g>
</svg>
