<svg xmlns="http://www.w3.org/2000/svg" fill="#fdfdfd" viewBox="0 0 20 20">
    <path d="M9.431 0l-0.16 0.006c-0.851 0.068-1.571 0.671-1.781 1.51l-0.185 0.738-0.11 0.038c-0.225 0.082-0.447 0.174-0.664 0.275l-0.103 0.051-0.655-0.393c-0.787-0.472-1.794-0.348-2.442 0.301l-0.806 0.806-0.115 0.125c-0.547 0.648-0.628 1.58-0.186 2.317l0.393 0.655-0.050 0.103c-0.102 0.217-0.194 0.439-0.276 0.664l-0.038 0.11-0.738 0.185c-0.89 0.222-1.515 1.022-1.515 1.939v1.139l0.006 0.16c0.068 0.85 0.67 1.57 1.508 1.78l0.741 0.184 0.038 0.112c0.082 0.225 0.173 0.446 0.275 0.662l0.050 0.102-0.393 0.656c-0.472 0.787-0.348 1.794 0.301 2.442l0.806 0.806 0.125 0.115c0.648 0.547 1.58 0.628 2.317 0.186l0.655-0.394 0.103 0.052c0.217 0.1 0.438 0.193 0.663 0.274l0.11 0.037 0.185 0.741c0.223 0.891 1.023 1.516 1.94 1.516h1.14l0.16-0.006c0.85-0.068 1.57-0.67 1.78-1.508l0.184-0.742 0.112-0.037c0.225-0.082 0.446-0.173 0.662-0.275l0.102-0.051 0.656 0.394c0.787 0.472 1.794 0.348 2.442-0.301l0.806-0.806 0.115-0.125c0.547-0.648 0.628-1.58 0.186-2.317l-0.394-0.656 0.051-0.102c0.102-0.216 0.193-0.437 0.275-0.662l0.037-0.112 0.742-0.184c0.89-0.223 1.514-1.023 1.514-1.94v-1.14l-0.006-0.16c-0.068-0.85-0.671-1.57-1.509-1.78l-0.741-0.185-0.037-0.11c-0.081-0.225-0.173-0.446-0.274-0.663l-0.052-0.103 0.394-0.655c0.472-0.787 0.348-1.794-0.301-2.442l-0.806-0.806-0.125-0.115c-0.648-0.547-1.58-0.628-2.317-0.186l-0.656 0.393-0.102-0.050c-0.216-0.102-0.437-0.193-0.662-0.275l-0.112-0.038-0.184-0.74c-0.223-0.891-1.023-1.515-1.94-1.515h-1.14zM10.57 1c0.458 0 0.858 0.312 0.97 0.757l0.322 1.286c0.617 0.165 1.2 0.41 1.74 0.722l1.138-0.682c0.393-0.236 0.897-0.174 1.221 0.15l0.806 0.806c0.324 0.324 0.386 0.828 0.15 1.221l-0.682 1.137c0.313 0.54 0.558 1.125 0.722 1.742l1.286 0.322c0.445 0.11 0.757 0.51 0.757 0.97v1.139c0 0.458-0.312 0.858-0.757 0.97l-1.286 0.322c-0.165 0.617-0.41 1.2-0.722 1.74l0.682 1.138c0.236 0.393 0.174 0.897-0.15 1.221l-0.806 0.806c-0.324 0.324-0.828 0.386-1.221 0.15l-1.137-0.682c-0.54 0.313-1.124 0.557-1.741 0.722l-0.322 1.286c-0.112 0.445-0.512 0.757-0.97 0.757h-1.14c-0.458 0-0.858-0.312-0.97-0.757l-0.32-1.286c-0.618-0.164-1.203-0.409-1.743-0.722l-1.137 0.682c-0.393 0.236-0.897 0.174-1.221-0.15l-0.806-0.806c-0.324-0.324-0.386-0.828-0.15-1.221l0.682-1.137c-0.313-0.54-0.557-1.124-0.722-1.741l-1.286-0.322c-0.445-0.112-0.757-0.512-0.757-0.97v-1.14c0-0.459 0.312-0.859 0.758-0.97l1.284-0.32c0.165-0.618 0.41-1.203 0.723-1.744l-0.682-1.136c-0.236-0.393-0.174-0.897 0.15-1.221l0.806-0.806c0.324-0.324 0.828-0.386 1.221-0.15l1.137 0.682c0.54-0.313 1.126-0.558 1.743-0.723l0.32-1.284c0.112-0.446 0.512-0.758 0.971-0.758h1.139zM10 6c-2.21 0-4 1.79-4 4s1.79 4 4 4 4-1.79 4-4-1.79-4-4-4zM10 7c1.657 0 3 1.343 3 3s-1.343 3-3 3-3-1.343-3-3 1.343-3 3-3z"></path>
</svg>