<svg xmlns="http://www.w3.org/2000/svg" width="19" height="18" fill="#fdfdfd"><path fill-rule="evenodd" d="M7.826 2.49c.242-.653 1.165-.653 1.407 0l1.711 4.625 4.625 1.711c.653.242.653 1.165 0 1.407l-4.625 1.711-1.711 4.625c-.242.653-1.165.653-1.407 0l-1.711-4.625-4.625-1.711c-.653-.242-.653-1.165 0-1.407l4.625-1.711L7.826 2.49zm.703.981L7.013 7.57a.75.75 0 0 1-.443.443L2.47 9.53l4.099 1.517a.75.75 0 0 1 .443.443l1.517 4.099 1.517-4.099a.75.75 0 0 1 .443-.443l4.099-1.517-4.099-1.517a.75.75 0 0 1-.443-.443L8.53 3.47z"/><path d="M15.266 1.634a.25.25 0 0 1 .469 0l.401 1.083a.25.25 0 0 0 .148.148l1.083.401a.25.25 0 0 1 0 .469l-1.083.401a.25.25 0 0 0-.148.148l-.401 1.083a.25.25 0 0 1-.469 0l-.401-1.083a.25.25 0 0 0-.148-.148l-1.083-.401a.25.25 0 0 1 0-.469l1.083-.401a.25.25 0 0 0 .148-.148l.401-1.083z"/></svg>
